<?xml version="1.0" encoding="UTF-8"?>
<svg width="9px" height="12px" viewBox="0 0 9 12" version="1.1" xmlns="http://www.w3.org/2000/svg" xmlns:xlink="http://www.w3.org/1999/xlink">
    <title>Standard Sort</title>
    <g stroke="none" stroke-width="1" fill="" fill-rule="evenodd">
        <g transform="translate(-517.000000, -259.000000)" fill="" fill-rule="nonzero">
            <g transform="translate(430.000000, 259.000000)">
                <g transform="translate(87.000000, 0.000000)">
                    <path d="M4.3535,1.8965 L2.6035,0.1465 C2.4085,-0.04875 2.0915,-0.04875 1.8965,0.1465 L0.1465,1.8965 C-0.04875,2.09175 -0.04875,2.40825 0.1465,2.6035 C0.3415,2.79875 0.6585,2.79875 0.8535,2.6035 L1.75,1.707 L1.75,11.5 C1.75,11.776 1.974,12 2.25,12 C2.526,12 2.75,11.776 2.75,11.5 L2.75,1.707 L3.6465,2.6035 C3.744,2.70125 3.872,2.75 4,2.75 C4.128,2.75 4.256,2.70125 4.3535,2.6035 C4.54875,2.40825 4.54875,2.09175 4.3535,1.8965 Z"></path>
                    <path d="M8.8535,9.3965 C8.65825,9.20125 8.34175,9.20125 8.1465,9.3965 L7.25,10.293 L7.25,0.5 C7.25,0.224 7.026,0 6.75,0 C6.474,0 6.25,0.224 6.25,0.5 L6.25,10.293 L5.3535,9.3965 C5.15825,9.20125 4.8415,9.20125 4.6465,9.3965 C4.45125,9.59175 4.45125,9.90825 4.6465,10.1035 L6.3965,11.8535 C6.49425,11.95125 6.622,12 6.75,12 C6.878,12 7.00575,11.95125 7.1035,11.8535 L8.8535,10.1035 C9.04875,9.90825 9.04875,9.59175 8.8535,9.3965 Z"></path>
                </g>
            </g>
        </g>
    </g>
</svg>