<?xml version="1.0" encoding="UTF-8"?>
<svg width="17px" height="17px" viewBox="0 0 17 17" version="1.1" xmlns="http://www.w3.org/2000/svg" xmlns:xlink="http://www.w3.org/1999/xlink">
    <title>search</title>
    <g id="Page-1" stroke="none" stroke-width="1" fill="" fill-rule="evenodd">
        <g id="search" fill="" fill-rule="nonzero">
            <path d="M6.33464882,10.7100778 C7.55004576,10.7100778 8.5832952,10.2845268 9.43439716,9.43342485 C10.2854991,8.58232289 10.7110501,7.54907344 10.7110501,6.3336765 C10.7110501,5.11827957 10.2854991,4.08503012 9.43439716,3.23392816 C8.5832952,2.3828262 7.55004576,1.95727522 6.33464882,1.95727522 C5.11925189,1.95727522 4.08600244,2.3828262 3.23490048,3.23392816 C2.38379852,4.08503012 1.95824754,5.11827957 1.95824754,6.3336765 C1.95824754,7.54907344 2.38379852,8.58232289 3.23490048,9.43342485 C4.08600244,10.2845268 5.11925189,10.7100778 6.33464882,10.7100778 Z M12.1685541,10.7100778 L17,15.5415237 L15.5415237,17 L10.7100778,12.1685541 L10.7100778,11.393617 L10.4368566,11.1203958 C9.28239152,12.1231793 7.91498894,12.624571 6.33464882,12.624571 C4.57216121,12.624571 3.07576451,12.0168726 1.84545871,10.8014756 C0.615152902,9.5860787 0,8.09713643 0,6.33464882 C0,4.57216121 0.615152902,3.07576451 1.84545871,1.84545871 C3.07576451,0.615152902 4.57216121,0 6.33464882,0 C8.09713643,0 9.5860787,0.615152902 10.8014756,1.84545871 C12.0168726,3.07576451 12.624571,4.57216121 12.624571,6.33464882 C12.624571,6.97248913 12.4725654,7.69427286 12.1685541,8.5 C11.8645428,9.30572714 11.5151567,9.95134599 11.1203958,10.4368566 L11.393617,10.7100778 L12.1685541,10.7100778 L12.1685541,10.7100778 Z" id="Shape"></path>
        </g>
    </g>
</svg>