<?xml version="1.0" standalone="no"?>
<!DOCTYPE svg PUBLIC "-//W3C//DTD SVG 20010904//EN"
 "http://www.w3.org/TR/2001/REC-SVG-20010904/DTD/svg10.dtd">
<svg version="1.0" xmlns="http://www.w3.org/2000/svg"
 width="700.000000pt" height="700.000000pt" viewBox="0 0 700.000000 700.000000"
 preserveAspectRatio="xMidYMid meet">
<metadata>
Created by potrace 1.11, written by Peter Selinger 2001-2013
</metadata>
<g transform="translate(0.000000,700.000000) scale(0.100000,-0.100000)"
fill="#000000" stroke="none">
<path d="M0 5935 l0 -1064 51 -16 c227 -67 535 -83 779 -40 351 62 687 240
945 500 142 142 228 264 320 450 115 232 165 411 185 660 14 173 -7 420 -46
558 -5 16 -67 17 -1120 17 l-1114 0 0 -1065z"/>
<path d="M6938 3137 c-216 -425 -569 -942 -941 -1377 -145 -169 -617 -634
-792 -779 -432 -360 -865 -650 -1330 -892 l-170 -89 1648 0 1647 0 0 1625 c0
894 -1 1625 -2 1625 -2 0 -29 -51 -60 -113z"/>
</g>
</svg>
